# xmcd
#
# Track frame offsets: 
#        150
#        10760
#        24597
#        35415
#        47712
#        61112
#        73845
#        84197
#        96907
#        107775
#        120977
#        135080
#        147202
#        158660
#        170527
#        184540
#        199330
#        214565
#        228920
#        240855
#        249662
#        261717
#        271860
#        282952
#
# Disc length: 3939 seconds
#
# Revision: 1
# Processed by: cddbd v1.5.2PL0 Copyright (c) Steve Scherf et al.
# Submitted via: ExactAudioCopyFreeDBPlugin 1.0
#
DISCID=410f6118
DTITLE=Chuck Berry - Chuck Berry:  The Chess Box, 1955-1973
DYEAR=1988
DGENRE=Rock
TTITLE0=Maybellene
TTITLE1=Wee Wee Hours
TTITLE2=Thirty Days
TTITLE3=You Can't Catch Me
TTITLE4=No Money Down
TTITLE5=Downbound Train
TTITLE6=Brown Eyed Handsome Man
TTITLE7=Drifting Heart
TTITLE8=Roll Over Beethoven
TTITLE9=Too Much Monkey Business
TTITLE10=Havana Moon
TTITLE11=School Day
TTITLE12=Rock and Roll Music
TTITLE13=Oh Baby Doll
TTITLE14=I've Changed
TTITLE15=Reelin' and Rockin'
TTITLE16=Rockin' at the Philharmonic
TTITLE17=Sweet Little Sixteen
TTITLE18=Johnny B. Goode
TTITLE19=Time Was
TTITLE20=Around and Around
TTITLE21=Beautiful Delilah
TTITLE22=House of Blue Lights
TTITLE23=Carol
EXTD=YEAR: 1988
EXTT0=
EXTT1=
EXTT2=
EXTT3=
EXTT4=
EXTT5=
EXTT6=
EXTT7=
EXTT8=
EXTT9=
EXTT10=
EXTT11=
EXTT12=
EXTT13=
EXTT14=
EXTT15=
EXTT16=
EXTT17=
EXTT18=
EXTT19=
EXTT20=
EXTT21=
EXTT22=
EXTT23=
PLAYORDER=
